<?xml version="1.0" standalone="no"?><svg xmlns="http://www.w3.org/2000/svg" viewBox="0 0 1440 320"><path fill="#5000ca" fill-opacity="1" d="M0,128L17.1,117.3C34.3,107,69,85,103,101.3C137.1,117,171,171,206,181.3C240,192,274,160,309,144C342.9,128,377,128,411,117.3C445.7,107,480,85,514,80C548.6,75,583,85,617,117.3C651.4,149,686,203,720,192C754.3,181,789,107,823,117.3C857.1,128,891,224,926,229.3C960,235,994,149,1029,144C1062.9,139,1097,213,1131,250.7C1165.7,288,1200,288,1234,293.3C1268.6,299,1303,309,1337,261.3C1371.4,213,1406,107,1423,53.3L1440,0L1440,0L1422.9,0C1405.7,0,1371,0,1337,0C1302.9,0,1269,0,1234,0C1200,0,1166,0,1131,0C1097.1,0,1063,0,1029,0C994.3,0,960,0,926,0C891.4,0,857,0,823,0C788.6,0,754,0,720,0C685.7,0,651,0,617,0C582.9,0,549,0,514,0C480,0,446,0,411,0C377.1,0,343,0,309,0C274.3,0,240,0,206,0C171.4,0,137,0,103,0C68.6,0,34,0,17,0L0,0Z"></path></svg>